<?xml version="1.0" encoding="utf-8"?>
<!-- Generator: Adobe Illustrator 27.6.1, SVG Export Plug-In . SVG Version: 6.00 Build 0)  -->
<svg version="1.1" id="Layer_1" xmlns="http://www.w3.org/2000/svg" xmlns:xlink="http://www.w3.org/1999/xlink" x="0px" y="0px"
	 viewBox="0 0 841.9 1190.6" style="enable-background:new 0 0 841.9 1190.6;" xml:space="preserve">
<style type="text/css">
	.st0{fill-rule:evenodd;clip-rule:evenodd;fill:none;stroke:#000000;stroke-width:0.25;stroke-miterlimit:10;}
	.st1{fill-rule:evenodd;clip-rule:evenodd;}
</style>
<path class="st0" d="M416.8,569.9h21c1.9,0,3.5,1.6,3.5,3.5v21c0,1.9-1.6,3.5-3.5,3.5h-21c-1.9,0-3.5-1.6-3.5-3.5v-21
	C413.3,571.5,414.9,569.9,416.8,569.9z"/>
<g>
	<path class="st1" d="M420.5,578.4v1.1h2.6l2,11.2l2.6-0.2c2.6-3.2,4.3-5.7,5.2-7.3c0.9-1.6,1.4-3,1.4-4.1c0-0.6-0.2-1.1-0.6-1.5
		c-0.4-0.3-0.8-0.5-1.4-0.5c-1.1,0-1.9,0.4-2.6,1.3c0.7,0.5,1.1,0.8,1.4,1.1c0.3,0.3,0.4,0.7,0.4,1.1c0,0.8-0.2,1.7-0.7,2.7
		c-0.5,1-1,1.9-1.5,2.7c-0.4,0.5-0.8,1.1-1.3,1.8l-1.7-9.7c-0.1-0.7-0.6-1-1.3-1c-0.3,0-1,0.1-1.9,0.4
		C422,577.9,421.2,578.2,420.5,578.4z"/>
</g>
</svg>
